<?xml version="1.0" encoding="UTF-8"?>
<svg id="Layer_1" data-name="Layer 1" xmlns="http://www.w3.org/2000/svg" viewBox="0 0 73 73">
  <defs>
    <style>
      .cls-1 {
        fill: #020302;
      }

      .cls-2 {
        fill: #0098d9;
      }

      .cls-3 {
        fill: #fcda1f;
      }

      .cls-4 {
        fill: #e64475;
      }

      .cls-5 {
        fill: #f49512;
      }

      .cls-6 {
        fill: #fff;
      }

      .cls-7 {
        fill: #b25f9d;
      }

      .cls-8 {
        fill: #c17ab2;
      }

      .cls-9 {
        fill: #dd380f;
      }

      .cls-10 {
        fill: #41b376;
      }

      .cls-11 {
        fill: #09a677;
      }
    </style>
  </defs>
  <circle class="cls-6" cx="52.97" cy="18.22" r="7.87"/>
  <g>
    <path class="cls-11" d="m67.03,28.42v1.09c0,.82-.43,1.58-1.14,2.01-.65.38-1.38.58-2.12.58-.22,0-.45-.01-.67-.05l-4.21-.91c-1.95-.42-3.92-.68-5.89-.76h0c1.09-2.39,1.76-4.59,2.1-6.63,1.89-1.03,3.16-3.04,3.16-5.34,0-2.99-2.16-5.48-5-5.99-3.96-7.02-12.08-9.84-12.08-9.84,14.27,0,25.85,11.57,25.85,25.84Z"/>
    <path class="cls-3" d="m60.22,49c0,2.12-.36,4.22-1.04,6.21-6.87,1.98-12.37-.32-12.37-.32l2.47-1.54c3.2-1.99,4.38-5.86,3.21-9.16h0s3.15-.18,5.92-2.87l.13-.06c.17.34.32.68.46,1.04.83,2.2,1.22,4.47,1.22,6.71Z"/>
    <path class="cls-10" d="m58.54,41.25l-.13.06c-2.77,2.69-5.92,2.87-5.92,2.87h0c-.34-.97-.89-1.89-1.65-2.7-1.12-1.19-2.61-1.78-4.11-1.78-1.57,0-3.14.65-4.26,1.95l-.62.72c-.33.38-.61.8-.83,1.24-1.59.1-3.71-1.65-3.83-1.75.18-.38.39-.76.62-1.11h0c7.32-.81,11.31-5.33,11.31-5.33,3.94.02,7.61,2.26,9.42,5.85Z"/>
    <path class="cls-1" d="m54.29,14.59c1.08.37,1.85,1.4,1.85,2.6,0,.76-.31,1.46-.82,1.96-.13-1.66-.5-3.18-1.03-4.56Z"/>
    <path class="cls-1" d="m54.29,14.59c.54,1.38.9,2.9,1.03,4.56-.5.49-1.18.79-1.93.79-1.52,0-2.76-1.24-2.76-2.76s1.23-2.76,2.76-2.76c.32,0,.62.05.9.16Z"/>
    <path class="cls-5" d="m46.8,54.89s5.51,2.3,12.37.32c-1.42,4.11-4.23,7.73-8.18,10.11l-1.7,1.02c-1.16.7-2.36,1.31-3.57,1.83-2.41-.69-16.73-5.49-15.9-21.69.12.98.37,1.96.73,2.93,1.71,4.51,5.97,7.16,10.39,7.16,1.98,0,4-.53,5.84-1.68Z"/>
    <path class="cls-2" d="m55.1,23.74c-.34,2.04-1.01,4.24-2.1,6.62h0c-3.08-.14-6.16.13-9.16.8,2.14-15.25-9.93-22.26-9.93-22.26v-4.68c0-.91.74-1.65,1.65-1.65h5.63s8.13,2.83,12.08,9.84c-.36-.06-.72-.1-1.09-.1-3.37,0-6.09,2.73-6.09,6.09s2.72,6.09,6.09,6.09c1.06,0,2.06-.27,2.93-.75Z"/>
    <path class="cls-2" d="m46.47,35.72c.89-.22,1.77-.33,2.65-.32,0,0-3.99,4.52-11.31,5.33.24-.38.51-.74.8-1.08,1.35-1.59,3.19-2.77,5.31-3.3l2.55-.64Z"/>
    <path class="cls-8" d="m33.9,8.91s12.07,7.01,9.93,22.26c-1.44.32-2.86.73-4.26,1.23h0c-8.35-17.69-25.99-11.84-26.43-11.69,4.13-5.09,9.86-8.96,16.73-10.75l4.03-1.05Z"/>
    <path class="cls-3" d="m41.47,49.79l.71,1.01c-.22.43-.66.7-1.12.7-.13,0-.27-.02-.4-.07l-.62-.2c-2.46-.82-4.04-3.22-3.82-5.8.11-1.27.44-2.48.98-3.58.13.11,2.24,1.86,3.83,1.75-.98,1.95-.85,4.34.45,6.19Z"/>
    <path class="cls-7" d="m39.57,32.39h0c-.31.12-.63.23-.94.36l-.81.32c-.46.18-.9.38-1.32.6-23.22-11.78-30,12.89-30,12.89-.36-1.92-.53-3.84-.53-5.74,0-7.39,2.6-14.49,7.15-20.11h0c.45-.16,18.09-6.01,26.43,11.68Z"/>
    <path class="cls-9" d="m45.74,68.17c-7.24,3.09-15.14,2.91-21.97.1h0s-8.38-9.67-3.99-20.87c4.38-11.21,14.75-12.43,14.75-12.43-3.43,2.75-5.23,7.12-4.68,11.51-.83,16.2,13.49,21,15.9,21.69Z"/>
    <path class="cls-4" d="m36.5,33.67c-.71.38-1.37.81-1.98,1.3,0,0-10.36,1.22-14.75,12.43-4.38,11.21,3.99,20.87,3.99,20.87h0c-7.19-2.96-13.19-8.85-16-16.94-.55-1.58-.97-3.17-1.26-4.76,0,0,6.78-24.67,30-12.89Z"/>
  </g>
</svg>