<?xml version="1.0" encoding="UTF-8"?>
<svg id="Layer_1" data-name="Layer 1" xmlns="http://www.w3.org/2000/svg" viewBox="0 0 283.24 73">
  <defs>
    <style>
      .cls-1 {
        fill: #020302;
      }

      .cls-2 {
        fill: #0098d9;
      }

      .cls-3 {
        fill: #fcda1f;
      }

      .cls-4 {
        fill: #e64475;
      }

      .cls-5 {
        fill: #f49512;
      }

      .cls-6 {
        fill: #fff;
      }

      .cls-7 {
        fill: #746a68;
      }

      .cls-8 {
        fill: #817c6e;
      }

      .cls-9 {
        fill: #655956;
      }

      .cls-10 {
        fill: #848276;
      }

      .cls-11 {
        fill: #736b61;
      }

      .cls-12 {
        fill: #858478;
      }

      .cls-13 {
        fill: #b25f9d;
      }

      .cls-14 {
        fill: #c17ab2;
      }

      .cls-15 {
        fill: #dd380f;
      }

      .cls-16 {
        fill: #a8a8a8;
      }

      .cls-17 {
        fill: #140b10;
      }

      .cls-18 {
        fill: #434241;
      }

      .cls-19 {
        fill: #41b376;
      }

      .cls-20 {
        fill: #09a677;
      }

      .cls-21 {
        fill: #6e6668;
      }

      .cls-22 {
        fill: #494749;
      }

      .cls-23 {
        fill: #636363;
      }

      .cls-24 {
        fill: #586d71;
      }

      .cls-25 {
        fill: #4b5b61;
      }

      .cls-26 {
        fill: #505350;
      }

      .cls-27 {
        fill: #7c7469;
      }

      .cls-28 {
        fill: #272e2c;
      }
    </style>
  </defs>
  <circle class="cls-6" cx="52.79" cy="17.33" r="7.87"/>
  <g>
    <path class="cls-16" d="m92.87,58.05c-.73,0-1.35-.17-1.86-.5-.51-.33-.85-.79-1.03-1.36l.52-.31c.14.49.42.88.82,1.16.4.29.92.43,1.55.43s1.13-.15,1.48-.44c.34-.29.51-.67.51-1.14,0-.44-.17-.77-.5-1.01-.33-.23-.85-.46-1.55-.69-.25-.09-.44-.16-.56-.2-.12-.04-.29-.1-.5-.18s-.38-.15-.49-.22-.23-.16-.38-.27c-.15-.11-.25-.23-.32-.34s-.13-.26-.18-.42c-.05-.16-.08-.34-.08-.54,0-.64.23-1.15.68-1.54s1.03-.58,1.71-.58c.62,0,1.15.15,1.58.46.44.31.76.71.96,1.2l-.51.28c-.38-.91-1.06-1.37-2.04-1.37-.54,0-.98.14-1.3.43-.32.29-.49.65-.49,1.1s.15.75.45.96c.3.21.8.43,1.48.66.43.16.77.29,1.02.38.25.09.51.23.8.41.28.18.49.39.62.63s.19.53.19.85c0,.66-.24,1.18-.71,1.58-.47.4-1.1.59-1.89.59Z"/>
    <path class="cls-16" d="m102.29,50.01c.71,0,1.3.23,1.76.7s.7,1.05.7,1.75-.23,1.28-.7,1.75c-.47.46-1.06.7-1.76.7h-2.09v3.02h-.6v-7.91h2.69Zm0,4.33c.54,0,.99-.18,1.34-.53.35-.35.53-.8.53-1.35s-.18-1-.53-1.36c-.35-.35-.8-.53-1.34-.53h-2.09v3.76h2.09Z"/>
    <path class="cls-16" d="m113.94,57.93l-1.91-3.24h-2.49v3.24h-.6v-7.91h3.12c.64,0,1.19.23,1.65.69.46.46.69,1.01.69,1.65,0,.54-.16,1.01-.49,1.42-.33.41-.74.69-1.25.83l1.97,3.32h-.69Zm-4.4-7.35v3.54h2.52c.48,0,.89-.17,1.23-.51.34-.34.51-.76.51-1.25s-.17-.91-.51-1.25c-.34-.35-.75-.52-1.23-.52h-2.52Z"/>
    <path class="cls-16" d="m123.91,57.93l-.77-2.01h-3.96l-.77,2.01h-.63l3.07-7.91h.63l3.06,7.91h-.63Zm-4.52-2.58h3.53l-1.76-4.6-1.76,4.6Z"/>
    <polygon class="cls-16" points="132.89 50.01 130 54.67 130 57.93 129.4 57.93 129.4 54.67 126.52 50.01 127.2 50.01 129.71 54.09 132.21 50.01 132.89 50.01"/>
    <path class="cls-16" d="m145.12,50.01c.71,0,1.3.23,1.76.7s.7,1.05.7,1.75-.23,1.28-.7,1.75c-.47.46-1.06.7-1.76.7h-2.09v3.02h-.6v-7.91h2.69Zm0,4.33c.54,0,.99-.18,1.34-.53.35-.35.53-.8.53-1.35s-.18-1-.53-1.36c-.35-.35-.8-.53-1.34-.53h-2.09v3.76h2.09Z"/>
    <path class="cls-16" d="m156.31,57.93l-.77-2.01h-3.96l-.77,2.01h-.63l3.07-7.91h.63l3.06,7.91h-.63Zm-4.52-2.58h3.53l-1.76-4.6-1.76,4.6Z"/>
    <rect class="cls-16" x="160.81" y="50.01" width=".6" height="7.91"/>
    <polygon class="cls-16" points="171.29 50.01 171.89 50.01 171.89 57.93 171.36 57.93 166.69 51.12 166.69 57.93 166.09 57.93 166.09 50.01 166.59 50.01 171.29 56.85 171.29 50.01"/>
    <polygon class="cls-16" points="181.43 50.01 181.43 50.58 178.94 50.58 178.94 57.93 178.33 57.93 178.33 50.58 175.84 50.58 175.84 50.01 181.43 50.01"/>
    <rect class="cls-16" x="185.38" y="50.01" width=".6" height="7.91"/>
    <polygon class="cls-16" points="195.86 50.01 196.46 50.01 196.46 57.93 195.93 57.93 191.26 51.12 191.26 57.93 190.66 57.93 190.66 50.01 191.16 50.01 195.86 56.85 195.86 50.01"/>
    <path class="cls-16" d="m208.67,54.24v.31c0,.99-.35,1.82-1.05,2.49-.7.67-1.62,1.01-2.77,1.01-1.21,0-2.2-.39-2.98-1.18-.78-.79-1.18-1.75-1.18-2.9s.39-2.11,1.16-2.9c.78-.79,1.76-1.18,2.95-1.18.72,0,1.39.17,2,.52.61.35,1.07.81,1.41,1.39l-.53.32c-.26-.5-.65-.9-1.17-1.2-.52-.3-1.08-.45-1.7-.45-1.03,0-1.87.34-2.53,1.01-.66.67-.99,1.51-.99,2.49s.33,1.82.99,2.49c.66.67,1.52,1.01,2.57,1.01.93,0,1.68-.25,2.25-.76s.89-1.14.96-1.91h-3.36v-.56h3.97Z"/>
    <path class="cls-16" d="m222.28,58.05c-1.19,0-2.17-.39-2.95-1.18-.78-.79-1.16-1.75-1.16-2.9s.39-2.11,1.16-2.9,1.76-1.18,2.95-1.18c.72,0,1.39.17,1.99.51.6.34,1.07.8,1.4,1.38l-.53.31c-.26-.49-.65-.88-1.16-1.18-.51-.3-1.08-.45-1.7-.45-1.03,0-1.87.34-2.53,1.01-.66.67-.99,1.51-.99,2.49s.33,1.82.99,2.49c.66.67,1.5,1.01,2.53,1.01.62,0,1.19-.15,1.71-.45.52-.3.91-.7,1.17-1.21l.53.31c-.32.59-.79,1.06-1.4,1.41s-1.28.53-2.01.53Z"/>
    <path class="cls-16" d="m236.34,56.86c-.79.8-1.76,1.19-2.89,1.19s-2.1-.4-2.89-1.19c-.79-.79-1.19-1.76-1.19-2.89s.4-2.09,1.19-2.89c.79-.8,1.76-1.19,2.89-1.19s2.1.4,2.89,1.19c.79.79,1.19,1.76,1.19,2.89s-.4,2.09-1.19,2.89Zm-5.36-.41c.67.68,1.5,1.02,2.47,1.02s1.79-.34,2.47-1.02,1.01-1.51,1.01-2.48-.34-1.8-1.01-2.48-1.5-1.02-2.47-1.02-1.8.34-2.47,1.02c-.67.68-1.01,1.51-1.01,2.48s.34,1.8,1.01,2.48Z"/>
    <path class="cls-16" d="m241.78,57.89c-.1.1-.22.15-.36.15s-.26-.05-.36-.15c-.1-.1-.15-.22-.15-.36s.05-.26.15-.36.22-.15.36-.15.26.05.36.15.15.22.15.36-.05.26-.15.36Z"/>
    <path class="cls-20" d="m66.84,28.42v1.09c0,.82-.43,1.58-1.14,2.01-.65.38-1.38.58-2.12.58-.22,0-.45-.01-.67-.05l-4.21-.91c-1.95-.42-3.92-.68-5.89-.76h0c1.09-2.39,1.76-4.59,2.1-6.63,1.89-1.03,3.16-3.04,3.16-5.34,0-2.99-2.16-5.48-5-5.99-3.96-7.02-12.08-9.84-12.08-9.84,14.27,0,25.85,11.57,25.85,25.84Z"/>
    <path class="cls-3" d="m60.03,49c0,2.12-.36,4.22-1.04,6.21-6.87,1.98-12.37-.32-12.37-.32l2.47-1.54c3.2-1.99,4.38-5.86,3.21-9.16h0s3.15-.18,5.92-2.87l.13-.06c.17.34.32.68.46,1.04.83,2.2,1.22,4.47,1.22,6.71Z"/>
    <path class="cls-19" d="m58.35,41.25l-.13.06c-2.77,2.69-5.92,2.87-5.92,2.87h0c-.34-.97-.89-1.89-1.65-2.7-1.12-1.19-2.61-1.78-4.11-1.78-1.57,0-3.14.65-4.26,1.95l-.62.72c-.33.38-.61.8-.83,1.24-1.59.1-3.71-1.65-3.83-1.75.18-.38.39-.76.62-1.11h0c7.32-.81,11.31-5.33,11.31-5.33,3.94.02,7.61,2.26,9.42,5.85Z"/>
    <path class="cls-1" d="m54.1,14.59c1.08.37,1.85,1.4,1.85,2.6,0,.76-.31,1.46-.82,1.96-.13-1.66-.5-3.18-1.03-4.56Z"/>
    <path class="cls-1" d="m54.1,14.59c.54,1.38.9,2.9,1.03,4.56-.5.49-1.18.79-1.93.79-1.52,0-2.76-1.24-2.76-2.76s1.23-2.76,2.76-2.76c.32,0,.62.05.9.16Z"/>
    <path class="cls-5" d="m46.62,54.89s5.51,2.3,12.37.32c-1.42,4.11-4.23,7.73-8.18,10.11l-1.7,1.02c-1.16.7-2.36,1.31-3.57,1.83-2.41-.69-16.73-5.49-15.9-21.69.12.98.37,1.96.73,2.93,1.71,4.51,5.97,7.16,10.39,7.16,1.98,0,4-.53,5.84-1.68Z"/>
    <path class="cls-2" d="m54.91,23.74c-.34,2.04-1.01,4.24-2.1,6.62h0c-3.08-.14-6.16.13-9.16.8,2.14-15.25-9.93-22.26-9.93-22.26v-4.68c0-.91.74-1.65,1.65-1.65h5.63s8.13,2.83,12.08,9.84c-.36-.06-.72-.1-1.09-.1-3.37,0-6.09,2.73-6.09,6.09s2.72,6.09,6.09,6.09c1.06,0,2.06-.27,2.93-.75Z"/>
    <path class="cls-2" d="m46.28,35.72c.89-.22,1.77-.33,2.65-.32,0,0-3.99,4.52-11.31,5.33.24-.38.51-.74.8-1.08,1.35-1.59,3.19-2.77,5.31-3.3l2.55-.64Z"/>
    <path class="cls-14" d="m33.71,8.91s12.07,7.01,9.93,22.26c-1.44.32-2.86.73-4.26,1.23h0c-8.35-17.69-25.99-11.84-26.43-11.69,4.13-5.09,9.86-8.96,16.73-10.75l4.03-1.05Z"/>
    <path class="cls-3" d="m41.29,49.79l.71,1.01c-.22.43-.66.7-1.12.7-.13,0-.27-.02-.4-.07l-.62-.2c-2.46-.82-4.04-3.22-3.82-5.8.11-1.27.44-2.48.98-3.58.13.11,2.24,1.86,3.83,1.75-.98,1.95-.85,4.34.45,6.19Z"/>
    <path class="cls-13" d="m39.38,32.39h0c-.31.12-.63.23-.94.36l-.81.32c-.46.18-.9.38-1.32.6-23.22-11.78-30,12.89-30,12.89-.36-1.92-.53-3.84-.53-5.74,0-7.39,2.6-14.49,7.15-20.11h0c.45-.16,18.09-6.01,26.43,11.68Z"/>
    <path class="cls-15" d="m45.55,68.17c-7.24,3.09-15.14,2.91-21.97.1h0s-8.38-9.67-3.99-20.87c4.38-11.21,14.75-12.43,14.75-12.43-3.43,2.75-5.23,7.12-4.68,11.51-.83,16.2,13.49,21,15.9,21.69Z"/>
    <path class="cls-4" d="m36.31,33.67c-.71.38-1.37.81-1.98,1.3,0,0-10.36,1.22-14.75,12.43-4.38,11.21,3.99,20.87,3.99,20.87h0c-7.19-2.96-13.19-8.85-16-16.94-.55-1.58-.97-3.17-1.26-4.76,0,0,6.78-24.67,30-12.89Z"/>
    <path class="cls-28" d="m93.24,35.02c-.96-.99-1.7-2.16-2.22-3.52-.52-1.36-.78-2.82-.78-4.37s.27-2.97.81-4.3c.54-1.33,1.29-2.48,2.26-3.46.97-.98,2.12-1.75,3.46-2.31,1.2-.5,2.52-.77,3.95-.82-.48-.06-.98-.1-1.52-.1-1.62,0-3.1.28-4.43.84-1.34.56-2.49,1.33-3.46,2.31s-1.72,2.13-2.26,3.46c-.54,1.33-.81,2.76-.81,4.3s.26,3.02.78,4.38c.39,1.02.9,1.93,1.54,2.74.21.27.44.53.68.78.96.99,2.11,1.77,3.46,2.34,1.35.57,2.86.85,4.54.85.15,0,.29-.02.44-.02-1.07-.12-2.07-.37-2.98-.75-1.35-.57-2.5-1.35-3.46-2.34Z"/>
    <path class="cls-28" d="m103.72,33.34c-.35.22-.74.42-1.18.6-.44.18-.92.33-1.45.46-.32.08-.67.13-1.02.16.42.07.86.11,1.32.11.6,0,1.16-.07,1.69-.2.53-.13,1.01-.28,1.45-.46.44-.18.83-.38,1.18-.6.25-.15.45-.3.65-.43l-.03-.03c-.11-.15-.22-.27-.34-.36l-.04-.03c-.12-.08-.24-.12-.37-.14h-.06c-.1-.02-.21,0-.32.03l-.13.03c-.15.06-.31.14-.48.27-.24.18-.53.38-.88.6Z"/>
    <path class="cls-28" d="m104.24,20.27c-.82-.35-1.78-.52-2.88-.52-.23,0-.44.01-.66.03.55.09,1.07.22,1.53.42.82.35,1.46.67,1.92.97h.03c.16.11.31.18.45.22l.15.03c.11.02.21.03.3.02h.08c.12-.04.23-.09.34-.16l.06-.06.18-.21c-.41-.23-.91-.47-1.51-.73Z"/>
    <path class="cls-25" d="m126.63,16.5c-.84,0-1.26.42-1.26,1.26v7.78h2v-7.7c0-.81.39-1.21,1.16-1.25-.16-.06-.34-.09-.56-.09h-1.35Z"/>
    <path class="cls-25" d="m127.37,36.59v-7.67h-2v7.59c0,.42.1.73.31.94.21.21.52.31.94.31h1.43c-.46-.17-.69-.56-.69-1.18Z"/>
    <path class="cls-25" d="m113.8,36.59v-18.76c0-.81.39-1.22,1.16-1.25-.16-.06-.34-.09-.55-.09h-1.38c-.82,0-1.23.42-1.23,1.26v18.76c0,.42.1.73.31.94.2.21.51.31.92.31h1.45c-.45-.17-.68-.56-.68-1.18Z"/>
    <path class="cls-22" d="m149.57,36.83l-1.5-4.43h-1.97l1.47,4.36c.05.17.12.32.2.45.25.38.65.57,1.21.57h1.45c-.42-.15-.71-.45-.85-.94Z"/>
    <path class="cls-22" d="m135.34,36.41l6.65-18.82c.24-.68.71-1.02,1.41-1.02h.45c-.16-.05-.33-.08-.53-.08h-1.92c-.7,0-1.17.34-1.41,1.02l-6.65,18.82c-.16.44-.14.79.04,1.05.19.26.51.39.97.39h1.47c-.18-.08-.34-.17-.44-.31-.19-.26-.21-.61-.04-1.05Z"/>
    <path class="cls-22" d="m145.23,23.56c-.1-.3-.2-.64-.3-1.02-.07-.28-1-2.54-1.52-3.9-.19-.51-.64-.18-.72.2-.1.34-.19.7-.27,1.08-.02.1-.04.18-.06.27h.03s0,0,0,0c.08.42.17.82.27,1.2.08.34.17.7.27,1.08.1.38.2.72.3,1.02l1.89,5.69h2l-1.89-5.62Z"/>
    <path class="cls-18" d="m164.74,27.01c.12.32.24.66.37,1.02s.25.7.35,1.02l.35,1.08h.03l.49,1.58.28-.51c-.11.29-.18.47-.19.51l.78-1.58-.59,1.07c.99-2.55,5.47-13.69,5.47-13.69.18-.51.49-.83.95-.96.14-.04.31-.06.49-.06h.51c.79.01,1.22.4,1.28,1.2l1.53,18.79c.06.86-.34,1.29-1.2,1.29-.2,0-.37-.03-.52-.08-.46-.15-.71-.52-.76-1.12,0,0-.86-17.44-.84-17.8h-.08c-.14.42-.27.81-.39,1.19-.12.34-.25.7-.38,1.08s-.25.72-.37,1.02l-.14.52h-.05c-.14.42-.27.81-.39,1.19-.12.34-.25.7-.38,1.08s-.25.72-.37,1.02l-3.09,7.25c-.24.65-.69.98-1.37.99-.16,0-.3-.02-.44-.06-.44-.13-.76-.44-.94-.93l-3.05-7.25c-.12-.3-2.35-6.24-2.47-6.64h-.09c.02.38-.01,2.98-.03,3.32.02.38.03.76.03,1.13,0,.34,0,.71-.01,1.1s-.03.75-.05,1.09l-.81,10.7c-.06.8-.49,1.2-1.28,1.2-.11,0-.21,0-.3-.02-.65-.1-.95-.52-.9-1.27l1.53-18.79c.07-.6.34-.98.78-1.12.15-.06.32-.08.51-.08h.54c.69.01,1.16.34,1.4,1.02l3.81,9.5Z"/>
    <path class="cls-17" d="m166.57,28.03c.13-.36.26-.7.38-1.02l3.8-9.5c.18-.51.49-.83.95-.96.14-.04.31-.06.49-.06h1.33c-.18,0-.35.02-.49.06-.46.13-.77.45-.95.96,0,0-4.48,11.14-5.47,13.69l-.28.51-.49-1.58h.06c.1-.36.21-.72.33-1.08.1-.32.21-.66.34-1.02Z"/>
    <path class="cls-18" d="m167.2,30.13l-.78,1.58s.08-.22.19-.51l.59-1.07Z"/>
    <path class="cls-17" d="m159.61,19.23c.12.4,2.35,6.34,2.47,6.64l3.05,7.25c.18.49.5.8.94.93.14.04.28.06.44.06h-1.28c-.18,0-.34-.02-.49-.06-.44-.13-.76-.44-.94-.93l-3.05-7.25c-.12-.3-.25-.64-.39-1.03-.14-.39-.27-.76-.39-1.1-.14-.39-.27-.79-.39-1.19h-.09c.02-.34.05-2.94.03-3.32h.09Z"/>
    <path class="cls-17" d="m173.52,18.77c-.02.36.84,17.8.84,17.8.05.6.3.97.76,1.12.15.05.32.08.52.08h-1.33c-.2,0-.37-.03-.52-.08-.46-.15-.71-.52-.76-1.12l-.81-10.7c-.04-.34-.06-.7-.06-1.09v-1.09c0-.38.01-.75.03-1.11h-.03l.14-.52c.12-.3.24-.64.37-1.02s.26-.74.38-1.08c.12-.38.25-.77.39-1.19h.08Z"/>
    <path class="cls-17" d="m156.37,17.69c.07-.6.34-.98.78-1.12.15-.06.32-.08.51-.08h1.33c-.19,0-.36.02-.51.08-.44.14-.71.52-.78,1.12l-1.53,18.79c-.05.75.25,1.17.9,1.27.09.01.19.02.3.02h-1.33c-.11,0-.21,0-.3-.02-.65-.1-.95-.52-.9-1.27l1.53-18.79Z"/>
    <path class="cls-21" d="m184.27,36.59l.08-18.84c0-.83.4-1.24,1.19-1.25h-2.05c-.82,0-1.23.42-1.23,1.26v18.76c0,.42.1.73.31.94.2.21.51.31.92.31h1.48c-.47-.15-.7-.55-.7-1.18Z"/>
    <path class="cls-9" d="m202.16,36.59v-18.76c0-.81.39-1.22,1.16-1.25-.16-.06-.34-.09-.55-.09h-1.38c-.82,0-1.23.42-1.23,1.26v18.76c0,.42.1.73.31.94.2.21.51.31.92.31h1.48c-.47-.15-.7-.55-.7-1.18Z"/>
    <path class="cls-27" d="m218.97,36.59v-18.83c0-.84.41-1.26,1.23-1.26h-2c-.82,0-1.23.42-1.23,1.26v18.76c0,.42.1.73.31.94.2.21.51.31.92.31h1.48c-.47-.15-.7-.55-.7-1.18Z"/>
    <path class="cls-10" d="m237.09,35.62c.8.67,1.7,1.22,2.71,1.65,1.34.57,2.82.85,4.43.85.17,0,.33-.02.49-.02-1.04-.12-2.02-.37-2.92-.75-1.34-.57-2.5-1.36-3.48-2.37s-1.74-2.19-2.28-3.55c-.54-1.36-.81-2.82-.81-4.38s.27-2.94.81-4.25c.54-1.32,1.3-2.47,2.28-3.45.98-.98,2.14-1.75,3.48-2.31,1.2-.5,2.52-.77,3.95-.82-.49-.06-.99-.1-1.51-.1-1.62,0-3.1.28-4.43.84-1.34.56-2.5,1.33-3.48,2.31s-1.74,2.13-2.28,3.45c-.54,1.32-.81,2.74-.81,4.25s.27,3.02.81,4.37c.27.68.59,1.32.97,1.91.11.18.24.34.36.51.08.11.16.24.25.35.11.14.23.26.34.39.12.13.23.27.35.4.24.25.5.49.77.71Z"/>
    <path class="cls-10" d="m251.26,21.85c-.62-.66-1.36-1.17-2.22-1.54-.86-.37-1.8-.55-2.82-.55-.25,0-.49.01-.73.03.54.09,1.06.23,1.55.44.86.37,1.6.88,2.22,1.54h0s0,0,0,0c.62.66,1.1,1.43,1.45,2.32s.52,1.85.52,2.89-.17,2.08-.52,3.01c-.35.93-.83,1.73-1.45,2.41-.62.68-1.36,1.21-2.22,1.6-.64.29-1.33.47-2.07.55.4.07.82.11,1.25.11,1.02,0,1.96-.2,2.82-.58.86-.39,1.6-.92,2.22-1.6s1.1-1.48,1.45-2.41.52-1.93.52-3.01-.17-2-.52-2.89-.83-1.66-1.45-2.32Z"/>
    <path class="cls-28" d="m274.79,34c.13.23.26.46.37.68.07.14.14.27.2.4.2.38.57.37.52-.48-.11-1.8-.26-4.43-.27-4.69-.01-.38-.02-12.08-.02-12.08,0-.81.4-1.21,1.17-1.25-.16-.06-.35-.09-.57-.09h-1.35c-.84,0-1.26.42-1.26,1.26v11.03c0,.32,0,.67.02,1.05,0,.38.03.74.07,1.08.04.38.08.77.12,1.17h-.06s0,0,0,0c-.18-.4-.37-.79-.57-1.17-.15-.33-.34-.68-.55-1.04l1.53,3.08c.2.32.41.67.63,1.05Z"/>
    <path class="cls-28" d="m264.36,23.39c.16.34.34.7.55,1.08.21.38.41.73.61,1.05l7.58,11.42c.07.14.16.26.26.37.3.31.7.47,1.21.47h1.46c-.41-.11-.72-.36-.93-.76l-7.58-11.42c-.2-.32-3.2-5.64-3.2-5.64,0,0-.71-1.27-.71-.15,0,.34-.02,1.24.09,2.41h.06s0,0,0,0c.18.4.38.79.6,1.17Z"/>
    <path class="cls-28" d="m262.08,36.59v-18.76c0-.84.41-1.26,1.23-1.26h.17c-.17-.05-.35-.08-.55-.08h-1.62c-.82,0-1.23.42-1.23,1.26v18.76c0,.42.1.73.31.94.2.21.51.31.92.31h1.45c-.45-.17-.68-.56-.68-1.18Z"/>
    <path class="cls-26" d="m96.78,17.05c-1.34.56-2.49,1.33-3.46,2.31-.97.98-1.72,2.13-2.26,3.46-.54,1.33-.81,2.76-.81,4.3s.26,3.02.78,4.37c.52,1.36,1.26,2.53,2.22,3.52.96.99,2.11,1.77,3.46,2.34.92.39,1.91.63,2.98.75.76-.02,1.49-.1,2.15-.25.79-.18,1.5-.4,2.13-.67.63-.27,1.18-.56,1.65-.87.47-.31.85-.58,1.15-.82.6-.52.66-1.1.18-1.74l-.57-.77h0c-.19.14-.4.28-.65.43-.35.22-.74.42-1.18.6-.44.18-.92.33-1.45.46-.53.13-1.09.2-1.69.2-.46,0-.9-.04-1.32-.11h0c-.22.02-.44.04-.67.04-1.14,0-2.15-.21-3.04-.63-.89-.42-1.64-.98-2.25-1.68-.61-.7-1.07-1.51-1.39-2.43-.32-.92-.48-1.88-.48-2.88s.15-1.91.46-2.8c.31-.89.76-1.67,1.36-2.34.6-.67,1.34-1.2,2.23-1.59.89-.39,1.91-.58,3.07-.58.48,0,.92.04,1.34.1.22-.01.43-.03.66-.03,1.1,0,2.06.17,2.88.52.6.26,1.11.5,1.51.73h0s.1-.13.1-.13l.54-.87c.44-.7.36-1.28-.24-1.74-.28-.2-.64-.42-1.08-.67-.44-.25-.95-.48-1.53-.69-.58-.21-1.23-.39-1.96-.54-.27-.06-.57-.09-.86-.13h0c-1.43.05-2.75.31-3.95.82Z"/>
    <path class="cls-24" d="m127.37,28.92v7.67c0,.62.23,1.01.69,1.17.76-.03,1.14-.44,1.14-1.25v-18.76c0-.62-.23-1.01-.67-1.17h0c-.77.04-1.16.44-1.16,1.25v7.7h-2s-9.74,0-9.74,0v-7.79c0-.62-.23-1.01-.68-1.18h0c-.77.03-1.16.44-1.16,1.25v18.76c0,.62.23,1.01.68,1.17.77-.03,1.16-.44,1.16-1.25v-7.67h9.74v.08h2Z"/>
    <path class="cls-23" d="m148.08,32.39l1.5,4.43c.14.49.43.79.85.93.42-.01.73-.13.91-.38.19-.26.2-.61.04-1.05l-6.65-18.82c-.15-.5-.44-.81-.88-.94h-.45c-.7,0-1.17.34-1.41,1.02l-6.65,18.82c-.16.44-.15.79.04,1.05.1.14.26.24.44.3.68-.03,1.13-.37,1.32-1.04l1.47-4.4h7.46l.03.08h1.97Zm-2.96-3.22h-5.54l1.92-5.69c.1-.3.19-.64.27-1.02.08-.38.17-.74.27-1.08.08-.38.18-.78.3-1.2h.03c.02-.09.04-.18.06-.27.08-.38.17-.74.27-1.08.08-.38.52-.7.72-.2.53,1.36,1.45,3.63,1.52,3.9.1.38.2.72.3,1.02l1.89,5.62h-2Z"/>
    <path class="cls-7" d="m184.35,17.75l-.08,18.84c0,.63.24,1.03.7,1.18h9.25c.84,0,1.26-.42,1.26-1.25v-.83c0-.81-.42-1.22-1.26-1.22h-8.12v-5.75h5.93c.84,0,1.26-.42,1.26-1.25v-.83c0-.81-.42-1.22-1.26-1.22h-5.93v-5.63h7.64c.84,0,1.26-.41,1.26-1.22v-.83c0-.83-.42-1.25-1.26-1.25h-8.2c-.79.01-1.19.43-1.19,1.25Z"/>
    <path class="cls-11" d="m202.16,17.83v18.76c0,.63.24,1.03.7,1.18h9.07c.84,0,1.26-.42,1.26-1.25v-.83c0-.81-.42-1.22-1.26-1.22h-7.94v-16.72c0-.62-.23-1.01-.68-1.17h0c-.77.03-1.16.44-1.16,1.25Z"/>
    <path class="cls-8" d="m220.19,16.5c-.82,0-1.23.42-1.23,1.26v18.83c0,.63.24,1.03.7,1.18h9.25c.84,0,1.26-.42,1.26-1.25v-.83c0-.81-.42-1.22-1.26-1.22h-8.12v-5.75h5.93c.84,0,1.26-.42,1.26-1.25v-.83c0-.81-.42-1.22-1.26-1.22h-5.93v-5.63h7.64c.84,0,1.26-.41,1.26-1.22v-.83c0-.83-.42-1.24-1.25-1.25h-8.25Z"/>
    <path class="cls-12" d="m241.8,17.05c-1.34.56-2.5,1.33-3.48,2.31-.98.98-1.74,2.13-2.28,3.45-.54,1.32-.81,2.74-.81,4.25s.27,3.02.81,4.38c.54,1.36,1.3,2.54,2.28,3.55s2.14,1.8,3.48,2.37c.91.39,1.89.63,2.92.75,1.42-.05,2.74-.32,3.94-.83,1.34-.57,2.5-1.36,3.48-2.37.98-1.01,1.74-2.19,2.28-3.55.54-1.36.81-2.82.81-4.37s-.27-2.94-.81-4.25-1.3-2.47-2.28-3.45c-.98-.98-2.14-1.75-3.48-2.31-.91-.38-1.88-.62-2.92-.74h0c-1.43.05-2.75.32-3.95.82Zm10.92,13.02c-.35.93-.83,1.73-1.45,2.41s-1.36,1.21-2.22,1.6c-.86.39-1.8.58-2.82.58-.43,0-.85-.04-1.25-.11h0c-.24.02-.49.04-.75.04-1.02,0-1.96-.19-2.82-.58-.86-.39-1.6-.92-2.22-1.6-.62-.68-1.1-1.48-1.45-2.41-.35-.93-.52-1.93-.52-3.01s.17-2,.52-2.89c.35-.89.83-1.66,1.45-2.32s1.36-1.17,2.22-1.54c.86-.37,1.8-.55,2.82-.55.44,0,.86.04,1.27.11.24-.02.48-.03.73-.03,1.02,0,1.96.18,2.82.55.86.37,1.6.88,2.22,1.54s1.1,1.43,1.45,2.32.52,1.85.52,2.89-.17,2.08-.52,3.01Z"/>
    <path class="cls-26" d="m263.62,19.81c0-1.12.71.15.71.15,0,0,3,5.32,3.2,5.64l7.58,11.42c.21.4.53.65.93.76h.15c.84,0,1.26-.42,1.26-1.26v-18.76c0-.62-.23-1.01-.69-1.17h0c-.78.03-1.17.44-1.17,1.25,0,0,0,11.7.02,12.08,0,.26.16,2.89.27,4.69.05.85-.32.86-.52.48-.06-.13-.13-.27-.2-.4-.11-.22-.24-.44-.37-.68-.22-.38-.43-.73-.63-1.05l-1.53-3.08-.02-.04c-.22-.38-.43-.73-.63-1.05l-7.55-11.45c-.21-.4-.53-.65-.95-.76h-.17c-.82,0-1.23.42-1.23,1.26v18.76c0,.62.23,1.01.68,1.17.77-.03,1.16-.44,1.16-1.25v-11c0-.32,0-.67-.03-1.05-.02-.38-.05-.74-.09-1.08-.04-.38-.07-.77-.09-1.17h0c-.1-1.17-.09-2.07-.09-2.41Z"/>
  </g>
</svg>